<?xml version="1.0" encoding="utf-8"?>
<!-- Generator: Adobe Illustrator 16.0.0, SVG Export Plug-In . SVG Version: 6.00 Build 0)  -->
<!DOCTYPE svg PUBLIC "-//W3C//DTD SVG 1.0//EN" "http://www.w3.org/TR/2001/REC-SVG-20010904/DTD/svg10.dtd">
<svg version="1.0" id="Layer_1" xmlns="http://www.w3.org/2000/svg" xmlns:xlink="http://www.w3.org/1999/xlink" x="0px" y="0px"
	 width="220px" height="340px" shape-rendering="optimizeSpeed" viewBox="0 0 220 340" enable-background="new 0 0 220 340" xml:space="preserve">
<g>
	<polygon fill="#0A1E1E" points="104.295,45.34 104.295,45.34 220,250 0,250 0,45.34 0,0 	"/>
	<polygon fill="#0A1E1E" points="60,300 60,260 20,260 20,340 100,340 	"/>
	<polygon fill="#0A1E1E" points="160,300 160,260 120,260 120,340 200,340 	"/>
	<g>
		<g>
			<polygon fill="#3065AF" points="25,175 25,195 29,195 29,179 33,179 33,195 37,195 37,179 41,179 41,195 45,195 45,175 			"/>
		</g>
		<rect x="20" y="125" fill="#0A1E1E" width="25" height="50"/>
	</g>
</g>
</svg>
