<?xml version="1.0" encoding="utf-8"?>
<!-- Generator: Adobe Illustrator 16.0.0, SVG Export Plug-In . SVG Version: 6.00 Build 0)  -->
<!DOCTYPE svg PUBLIC "-//W3C//DTD SVG 1.0//EN" "http://www.w3.org/TR/2001/REC-SVG-20010904/DTD/svg10.dtd">
<svg version="1.0" id="Layer_1" xmlns="http://www.w3.org/2000/svg" xmlns:xlink="http://www.w3.org/1999/xlink" x="0px" y="0px"
	 width="170px" height="50px" viewBox="0 0 170 50" enable-background="new 0 0 170 50" xml:space="preserve">
<g>
	<path fill="#0A1E1E" d="M0,50c55.229,0,170-22.386,170-50H0V50z"/>
	<path fill="#FFFFFF" d="M98,3h6V0h-6V3z M86,3h6V0h-6V3z M74,3h6V0h-6V3z M62,3h6V0h-6V3z M122,3h6V0h-6V3z M146,3h6V0h-6V3z
		 M158,0v3h6V0H158z M110,3h6V0h-6V3z M134,3h6V0h-6V3z"/>
</g>
</svg>
