<?xml version="1.0" encoding="utf-8"?>
<!-- Generator: Adobe Illustrator 16.0.0, SVG Export Plug-In . SVG Version: 6.00 Build 0)  -->
<!DOCTYPE svg PUBLIC "-//W3C//DTD SVG 1.0//EN" "http://www.w3.org/TR/2001/REC-SVG-20010904/DTD/svg10.dtd">
<svg version="1.0" id="Layer_1" xmlns="http://www.w3.org/2000/svg" xmlns:xlink="http://www.w3.org/1999/xlink" x="0px" y="0px"
	 width="170px" height="50px" viewBox="0 0 170 50" enable-background="new 0 0 170 50" xml:space="preserve">
<g>
	<path fill="#0A1E1E" d="M0,0c55.229,0,170,22.386,170,50H0V0z"/>
	<path fill="#FFFFFF" d="M98,50h6v-3h-6V50z M86,50h6v-3h-6V50z M74,50h6v-3h-6V50z M62,50h6v-3h-6V50z M122,50h6v-3h-6V50z M146,50
		h6v-3h-6V50z M164,50v-3h-6v3H164z M110,50h6v-3h-6V50z M134,50h6v-3h-6V50z"/>
</g>
</svg>
