<?xml version="1.0" encoding="utf-8"?>
<!-- Generator: Adobe Illustrator 16.0.0, SVG Export Plug-In . SVG Version: 6.00 Build 0)  -->
<!DOCTYPE svg PUBLIC "-//W3C//DTD SVG 1.0//EN" "http://www.w3.org/TR/2001/REC-SVG-20010904/DTD/svg10.dtd">
<svg version="1.0" xmlns="http://www.w3.org/2000/svg" xmlns:xlink="http://www.w3.org/1999/xlink" x="0px" y="0px" width="140px"
	 height="319px" viewBox="0 0 140 319" enable-background="new 0 0 140 319" xml:space="preserve">
<g id="HEAD">
	<path fill="#0A1E1E" d="M135.016,239H85c-6.278,8.356-10,18.743-10,30s3.722,21.644,10,30h50.016
		C128.731,290.645,125,280.262,125,269S128.731,247.355,135.016,239z"/>
	<polygon fill="#0A1E1E" points="120,200 120,0 20,0 20,200 0,200 0,210 140,210 140,200 	"/>
	<circle fill="#0A1E1E" cx="50" cy="269" r="50"/>
</g>
<g id="EYE" display="none">
	<g display="inline">
		<path fill="#EBFFFF" d="M70,266c-9.374,0-17-7.626-17-17s7.626-17,17-17s17,7.626,17,17S79.374,266,70,266z"/>
		<path fill="#0A1E1E" d="M70,235c7.72,0,14,6.28,14,14s-6.28,14-14,14s-14-6.28-14-14S62.28,235,70,235 M70,229
			c-11.046,0-20,8.954-20,20s8.954,20,20,20c11.045,0,20-8.954,20-20S81.045,229,70,229L70,229z"/>
	</g>
	<circle display="inline" fill="#0A1E1E" cx="70" cy="249" r="10"/>
</g>
</svg>
