<?xml version="1.0" encoding="utf-8"?>
<!-- Generator: Adobe Illustrator 16.0.0, SVG Export Plug-In . SVG Version: 6.00 Build 0)  -->
<!DOCTYPE svg PUBLIC "-//W3C//DTD SVG 1.0//EN" "http://www.w3.org/TR/2001/REC-SVG-20010904/DTD/svg10.dtd">
<svg version="1.0" id="F1" xmlns="http://www.w3.org/2000/svg" xmlns:xlink="http://www.w3.org/1999/xlink" x="0px" y="0px"
	 width="220px" height="609px" viewBox="0 0 220 609" enable-background="new 0 0 220 609" xml:space="preserve">
<g>
	<path fill="#0A1E1E" d="M135.016,239H85c-6.278,8.356-10,18.743-10,30s3.722,21.644,10,30h50.016
		C128.731,290.645,125,280.262,125,269S128.731,247.355,135.016,239z"/>
	<g>
		<path fill="#0A1E1E" d="M50,319c55.229,0,170-22.386,170-50H50V319z"/>
		<path fill="#FFFFFF" d="M148,272h6v-3h-6V272z M136,272h6v-3h-6V272z M124,272h6v-3h-6V272z M112,272h6v-3h-6V272z M172,272h6v-3
			h-6V272z M196,272h6v-3h-6V272z M208,269v3h6v-3H208z M160,272h6v-3h-6V272z M184,272h6v-3h-6V272z"/>
	</g>
	<g>
		<path fill="#0A1E1E" d="M50,219c55.229,0,170,22.386,170,50H50V219z"/>
		<path fill="#FFFFFF" d="M148,269h6v-3h-6V269z M136,269h6v-3h-6V269z M124,269h6v-3h-6V269z M112,269h6v-3h-6V269z M172,269h6v-3
			h-6V269z M196,269h6v-3h-6V269z M214,269v-3h-6v3H214z M160,269h6v-3h-6V269z M184,269h6v-3h-6V269z"/>
	</g>
	<polygon fill="#0A1E1E" points="104.295,314.34 104.295,314.34 220,519 0,519 0,314.34 0,269 	"/>
	<polygon fill="#0A1E1E" points="60,569 60,529 20,529 20,609 100,609 	"/>
	<polygon fill="#0A1E1E" points="160,569 160,529 120,529 120,609 200,609 	"/>
	<polygon fill="#0A1E1E" points="120,200 120,0 20,0 20,200 0,200 0,210 140,210 140,200 	"/>
	<circle fill="#0A1E1E" cx="50" cy="269" r="50"/>
	<g>
		<path fill="#EBFFFF" d="M70,266c-9.374,0-17-7.626-17-17s7.626-17,17-17s17,7.626,17,17S79.374,266,70,266z"/>
		<path fill="#0A1E1E" d="M70,235c7.72,0,14,6.28,14,14s-6.28,14-14,14s-14-6.28-14-14S62.28,235,70,235 M70,229
			c-11.046,0-20,8.954-20,20s8.954,20,20,20c11.045,0,20-8.954,20-20S81.045,229,70,229L70,229z"/>
	</g>
	<circle fill="#0A1E1E" cx="70" cy="249" r="10"/>
	<g>
		<g>
			<polygon fill="#3065AF" points="25,444 25,464 29,464 29,448 33,448 33,464 37,464 37,448 41,448 41,464 45,464 45,444 			"/>
		</g>
		<rect x="20" y="394" fill="#0A1E1E" width="25" height="50"/>
	</g>
</g>
</svg>
