<?xml version="1.0" encoding="utf-8"?>
<!-- Generator: Adobe Illustrator 22.0.0, SVG Export Plug-In . SVG Version: 6.00 Build 0)  -->
<svg version="1.1" id="Layer_1" xmlns="http://www.w3.org/2000/svg" xmlns:xlink="http://www.w3.org/1999/xlink" x="0px" y="0px"
	 viewBox="0 0 140 319" style="enable-background:new 0 0 140 319;" xml:space="preserve">
<style type="text/css">
	.st0{fill:#0A1E1E;}
	.st1{display:none;}
	.st2{display:inline;}
	.st3{fill:#EBFFFF;}
	.st4{display:inline;fill:#0A1E1E;}
</style>
<g id="HEAD">
	<polygon class="st0" points="120,200 120,0 20,0 20,200 0,200 0,210 140,210 140,200 	"/>
	<circle class="st0" cx="50" cy="269" r="50"/>
</g>
<g id="EYE" class="st1">
	<g class="st2">
		<path class="st3" d="M70,266c-9.4,0-17-7.6-17-17s7.6-17,17-17s17,7.6,17,17S79.4,266,70,266z"/>
		<path class="st0" d="M70,235c7.7,0,14,6.3,14,14s-6.3,14-14,14s-14-6.3-14-14S62.3,235,70,235 M70,229c-11,0-20,9-20,20
			c0,11,9,20,20,20c11,0,20-9,20-20S81,229,70,229L70,229z"/>
	</g>
	<circle class="st4" cx="70" cy="249" r="10"/>
</g>
</svg>
